<?xml version="1.0" encoding="utf-8"?>
<!-- Generator: Adobe Illustrator 22.1.0, SVG Export Plug-In . SVG Version: 6.00 Build 0)  -->
<svg version="1.1" id="Layer_1" xmlns="http://www.w3.org/2000/svg" xmlns:xlink="http://www.w3.org/1999/xlink" x="0px" y="0px"
	 viewBox="0 0 85 85" style="enable-background:new 0 0 85 85;" xml:space="preserve">
<style type="text/css">
	.st0{fill:none;stroke:#000000;stroke-width:0.5;stroke-miterlimit:10;}
	.st1{fill:#822064;}
</style>
<rect x="0.8" y="0.9" class="st0" width="83.5" height="83.2"/>
<g>
	<path d="M41.7,75C41.7,74.9,41.7,74.9,41.7,75C41.7,74.9,41.7,74.9,41.7,75c0,0-0.1,0-0.1,0c-0.9-23-2-39.8-1.7-43.3
		c0.2-2.4,1.5-4.4,1.5-4.4c0.4-0.8,1.4-1.7,2-2.8c0.4-0.7,0.8-1.4,1-2.1c0.3-1.1,0.2-3.2,0.1-3.2c-6.9,0-34,0.1-34,0.1v4.1
		c2.9,0.2,5.6,1.3,7.9,3.4c3.9,3.4,6,9,6,9.1c2.2,6.1,8.5,19.9,17.2,39.2C41.6,75,41.7,75,41.7,75z"/>
	<path class="st1" d="M55.7,19.5c0.2,0.7,0.6,1.3,0.8,1.7c0.4,0.6,0.8,1.1,1,1.3c0.1,0.1,0.2,0.2,0.2,0.2c0.9,0.9,2.1,1.9,4,3.1
		c1.5,1,1.5,0.9,1.7,1.2c0.6,1.4-1,3.9-1.4,5.5c-0.2,0.6-0.1,1.2-0.1,1.3c0,0.1,0.1,0.3,0.1,0.4c0-0.1,0.1-0.2,0.1-0.3
		c0.1-0.1,0.1-0.2,0.1-0.3c0,0,0,0,0,0c1-3.9,3-5.7,3-5.7c0.6-0.5,0.8-0.5,2-1.3c2.4-1.5,5-3.1,6.7-5.8c0.4-0.6,1.4-2.8,1.3-5.4
		c0-0.8-0.3-1.1-0.5-1.3c-1.1-1.2-3.5-0.7-4.6-0.4c-4.1,0.9-5,3-9,4.6C59.9,18.8,58.1,19.3,55.7,19.5z"/>
</g>
</svg>
